<?xml version="1.0" encoding="utf-8"?>
<!-- Generator: Adobe Illustrator 16.0.0, SVG Export Plug-In . SVG Version: 6.00 Build 0)  -->
<!DOCTYPE svg PUBLIC "-//W3C//DTD SVG 1.1//EN" "http://www.w3.org/Graphics/SVG/1.1/DTD/svg11.dtd">
<svg version="1.1" id="Layer_1" xmlns="http://www.w3.org/2000/svg" xmlns:xlink="http://www.w3.org/1999/xlink" x="0px" y="0px"
	 width="428px" height="158px" viewBox="0 0 428 158" enable-background="new 0 0 428 158" xml:space="preserve">
<g id="VkFpNW.tif">
	<g>
		<path fill="#FFFFFF" d="M165.75,113.795c-0.367,0.96-0.645,1.575-0.842,2.215c-3.222,10.49-6.416,20.988-9.669,31.469
			c-0.433,1.395-0.599,2.465,1.119,3.01c0.46,0.146,0.968,0.494,1.21,0.896c0.44,0.73,0.698,1.569,1.032,2.363
			c-0.7,0.174-1.401,0.494-2.103,0.498c-5.874,0.033-11.748,0.015-17.622,0c-2.118-0.005-2.333-0.285-1.856-2.354
			c4.305-18.695,8.365-37.452,13.022-56.06c2.386-9.531,2.02-19.087,2.053-28.689c0.03-8.604-0.056-17.21-0.106-25.815
			c-0.031-5.167,0.951-9.803,6.117-12.435c0.363-0.186,0.594-0.961,0.601-1.466c0.055-4.145,0.071-8.291,0.019-12.437
			c-0.009-0.636-0.322-1.343-0.688-1.888c-2.04-3.032-1.14-6.04,2.444-6.672c2.894-0.51,6.068-0.768,8.871-0.099
			c3.341,0.797,6.458,2.621,9.576,4.191c0.641,0.323,0.854,1.492,1.265,2.271c-0.776,0.329-1.596,1.006-2.319,0.915
			c-1.691-0.211-1.958,0.526-1.928,1.934c0.053,2.425-0.058,4.854-0.017,7.279c0.039,2.332-1.027,3.838-3.12,4.779
			c-1.777,0.8-2.08,2.711-0.541,3.927c4.948,3.912,6.553,9.312,6.631,15.236c0.164,12.513,0.102,25.028,0.195,37.542
			c0.01,1.298-0.357,1.65-1.615,1.613c-3.127-0.091-6.26-0.118-9.386-0.029c-1.38,0.038-1.758-0.47-1.756-1.757
			c0.014-10.148-0.011-20.296-0.037-30.444c-0.009-3.312-0.033-6.625-0.119-9.937c-0.012-0.456-0.424-0.902-0.651-1.353
			c-0.226,0.442-0.646,0.882-0.648,1.325c-0.044,6.514-0.048,13.029-0.03,19.543c0.019,6.959,0.05,13.917,0.124,20.875
			c0.016,1.422-0.48,1.854-1.923,1.785c-2.612-0.126-5.235-0.001-7.854-0.008c-0.947-0.002-1.728,0.203-1.61,1.346
			c0.253,2.463,0.397,4.96,0.929,7.366c0.459,2.076,1.857,2.81,4.384,2.927c2.5,0.117,4.2-0.617,4.846-2.561
			c0.612-1.846,0.975-3.817,1.131-5.759c0.129-1.588,0.568-2.257,2.267-2.196c3.508,0.126,7.022,0.129,10.532,0.054
			c1.337-0.028,1.871,0.398,2.193,1.715c3.524,14.378,7.108,28.741,10.695,43.104c1.36,5.445,2.737,10.887,4.199,16.305
			c0.162,0.598,0.847,1.219,1.444,1.506c1.696,0.815,2.984,1.901,3.506,4.136c-2.223,0.099-4.337,0.272-6.451,0.271
			c-4.304-0.005-8.608-0.175-12.911-0.125c-1.385,0.017-1.876-0.521-2.251-1.73c-3.835-12.366-7.717-24.718-11.597-37.07
			C166.377,114.904,166.125,114.54,165.75,113.795z M169.91,29.401c0.052-0.289,0.041-0.893,0.277-1.375
			c0.265-0.541,0.659-1.216,1.161-1.41c2.286-0.885,2.988-1.718,3.054-4.24c0.061-2.36,0.014-4.723,0.08-7.082
			c0.028-1.023-0.319-1.611-1.375-1.62c-3.828-0.032-7.656-0.096-11.48-0.009c-0.486,0.011-1.357,0.84-1.367,1.305
			c-0.087,4.014-0.043,8.032,0.045,12.047c0.01,0.418,0.509,1.13,0.865,1.188C164.024,28.667,166.899,29.006,169.91,29.401z"/>
		<path fill="#FFFFFF" d="M263.604,153.917c-4.071,0-7.733,0.003-11.395-0.001c-1.721-0.002-3.44-0.041-5.159-0.01
			c-0.974,0.017-1.641-0.211-1.597-1.354c0.314-8.153-3.331-15.207-6.196-22.491c-1.022-2.599-1.851-5.289-2.549-7.995
			c-0.342-1.321-0.868-1.776-2.209-1.732c-3.891,0.128-7.787,0.075-11.674,0.258c-0.677,0.031-1.7,0.729-1.914,1.345
			c-2.404,6.932-4.682,13.908-6.989,20.874c-0.101,0.302-0.159,0.618-0.231,0.93c-0.807,3.47-0.029,4.649,3.275,5.952
			c1.654,0.652,3.105,1.832,4.62,2.818c0.209,0.136,0.249,0.531,0.438,0.976c-0.521,0.14-0.915,0.336-1.312,0.341
			c-4.959,0.06-9.918,0.022-14.873,0.168c-1.779,0.053-2.119-0.767-1.933-2.205c0.638-4.932,1.227-9.87,1.955-14.787
			c0.997-6.744,2.046-13.481,3.181-20.203c1.241-7.348,2.538-14.687,3.937-22.006c1.244-6.514,3.064-12.945,3.876-19.506
			c0.668-5.401,0.27-10.94,0.271-16.417c0.002-6.897-0.009-13.795-0.131-20.69c-0.082-4.61,1.525-8.197,5.63-10.526
			c0.343-0.195,0.785-0.667,0.764-0.981c-0.149-2.206-0.046-4.521-0.708-6.581c-1.376-4.275-1.758-8.306,1.495-11.848
			c3.943-4.293,10.506-3.583,13.236,1.544c2.084,3.914,2.476,8.223,0.929,12.43c-0.557,1.515-1.831,2.877-3.056,4.008
			c-1.558,1.438-1.891,3.124-0.405,4.727c4.525,4.884,6.004,10.767,5.346,17.188c-0.521,5.074-1.429,10.11-2.259,15.147
			c-0.077,0.466-0.812,1.136-1.28,1.17c-1.97,0.145-3.959,0.017-5.934,0.12c-1.455,0.076-1.85-0.523-1.835-1.902
			c0.065-5.873,0.071-11.747,0.021-17.62c-0.008-0.92-0.416-1.837-0.639-2.755c-0.242,0.942-0.692,1.884-0.693,2.826
			c-0.007,10.984,0.055,21.968,0.091,32.952c0.001,0.367-0.082,0.735-0.168,1.452c-2.327,0-4.607,0.002-6.888-0.001
			c-1.588-0.002-2.789,0.229-2.29,2.377c0.428,1.841,0.338,3.819,0.896,5.606c0.746,2.386,1.947,3.028,4.13,2.858
			c1.974-0.153,3.499-1.464,3.88-3.635c0.318-1.815,0.329-3.683,0.58-5.513c0.093-0.68,0.523-1.305,0.723-1.978
			c0.208-0.702,0.451-1.429,0.458-2.148c0.028-3.129,0.028-6.26-0.068-9.387c-0.043-1.383,0.358-2.007,1.83-1.928
			c1.653,0.089,3.332,0.147,4.972-0.036c1.828-0.204,2.451,0.63,2.785,2.254c1.312,6.371,2.804,12.706,4.058,19.088
			c2.056,10.455,4.049,20.923,5.929,31.411c1.217,6.779,2.129,13.611,3.297,20.4c0.354,2.062,0.959,4.111,1.713,6.066
			c0.911,2.361,2.606,3.91,5.172,4.688c1.549,0.47,2.898,1.638,4.28,2.576C263.264,152.419,263.281,152.992,263.604,153.917z
			 M254.733,150.061c-1.007-1.727-1.993-2.9-2.416-4.252c-0.946-3.027-1.733-6.119-2.365-9.229
			c-0.966-4.749-1.774-9.53-2.586-14.309c-0.229-1.354-0.839-2.016-2.245-1.994c-1.786,0.029-3.573-0.02-5.359-0.054
			c-1.21-0.023-1.622,0.597-1.378,1.702c0.302,1.367,0.556,2.757,1.005,4.078c2.551,7.51,6.874,14.434,7.441,22.611
			c0.036,0.509,0.804,1.346,1.276,1.379C250.229,150.146,252.366,150.061,254.733,150.061z M213.702,150.355
			c-2.852-3.276-1.829-6.284-0.876-9.271c1.278-4.005,2.605-7.995,3.901-11.994c0.893-2.754,1.769-5.514,2.754-8.591
			c-2.65,0-4.933,0.064-7.21-0.023c-1.471-0.057-2.011,0.603-2.231,1.967c-0.653,4.025-1.442,8.027-2.106,12.051
			c-0.766,4.651-1.495,9.31-2.123,13.981c-0.077,0.576,0.531,1.765,0.894,1.795C208.827,150.442,210.971,150.355,213.702,150.355z
			 M231.537,28.354c1.188-1.299,2.239-2.241,3.03-3.366c1.037-1.475,2.292-2.997,2.68-4.677c0.473-2.054,0.274-4.305,0.088-6.446
			c-0.063-0.721-0.876-1.8-1.528-1.958c-1.406-0.34-3-0.736-4.203,0.787c-1.962,2.485-3.984,4.925-6.026,7.346
			c-0.764,0.905-1.218,5.806-0.483,6.716c0.17,0.212,0.531,0.31,0.824,0.376C227.955,27.587,229.997,28.021,231.537,28.354z"/>
	</g>
</g>
<g id="VkFpNW.tif_1_">
	<g>
		<path fill="#FFFFFF" d="M32.492,113.795c-0.367,0.96-0.645,1.575-0.841,2.215c-3.222,10.49-6.416,20.988-9.669,31.469
			c-0.433,1.395-0.598,2.465,1.119,3.01c0.46,0.146,0.967,0.494,1.21,0.896c0.44,0.73,0.698,1.569,1.032,2.363
			c-0.701,0.174-1.401,0.494-2.103,0.498c-5.874,0.033-11.748,0.015-17.622,0c-2.118-0.005-2.333-0.285-1.856-2.354
			c4.305-18.695,8.364-37.452,13.022-56.06c2.386-9.531,2.02-19.087,2.053-28.689c0.03-8.604-0.055-17.21-0.106-25.815
			c-0.031-5.167,0.951-9.803,6.117-12.435c0.363-0.186,0.594-0.961,0.601-1.466c0.055-4.145,0.072-8.291,0.018-12.437
			c-0.008-0.636-0.322-1.343-0.688-1.888c-2.04-3.032-1.14-6.04,2.444-6.672c2.894-0.51,6.068-0.768,8.871-0.099
			c3.341,0.797,6.458,2.621,9.576,4.191c0.641,0.323,0.855,1.492,1.265,2.271c-0.776,0.329-1.596,1.006-2.319,0.915
			c-1.692-0.211-1.958,0.526-1.928,1.934c0.053,2.425-0.058,4.854-0.017,7.279c0.039,2.332-1.027,3.838-3.12,4.779
			c-1.777,0.8-2.081,2.711-0.541,3.927c4.948,3.912,6.553,9.312,6.631,15.236c0.165,12.513,0.102,25.028,0.195,37.542
			c0.01,1.298-0.357,1.65-1.615,1.613c-3.127-0.091-6.26-0.118-9.386-0.029c-1.38,0.038-1.758-0.47-1.756-1.757
			c0.014-10.148-0.011-20.296-0.037-30.444c-0.009-3.312-0.033-6.625-0.119-9.937c-0.012-0.456-0.424-0.902-0.651-1.353
			c-0.226,0.442-0.646,0.882-0.649,1.325c-0.043,6.514-0.047,13.029-0.03,19.543c0.019,6.959,0.049,13.917,0.124,20.875
			c0.015,1.422-0.48,1.854-1.923,1.785c-2.612-0.126-5.235-0.001-7.854-0.008c-0.947-0.002-1.728,0.203-1.61,1.346
			c0.253,2.463,0.397,4.96,0.929,7.366c0.459,2.076,1.857,2.81,4.384,2.927c2.5,0.117,4.2-0.617,4.845-2.561
			c0.612-1.846,0.975-3.817,1.131-5.759c0.128-1.588,0.568-2.257,2.267-2.196c3.508,0.126,7.022,0.129,10.532,0.054
			c1.337-0.028,1.871,0.398,2.194,1.715c3.524,14.378,7.108,28.741,10.695,43.104c1.36,5.445,2.737,10.887,4.2,16.305
			c0.162,0.598,0.846,1.219,1.444,1.506c1.697,0.815,2.984,1.901,3.506,4.136c-2.223,0.099-4.337,0.272-6.451,0.271
			c-4.304-0.005-8.608-0.175-12.911-0.125c-1.385,0.017-1.876-0.521-2.251-1.73c-3.835-12.366-7.717-24.718-11.597-37.07
			C33.119,114.904,32.868,114.54,32.492,113.795z M36.653,29.401c0.051-0.289,0.04-0.893,0.276-1.375
			c0.265-0.541,0.66-1.216,1.162-1.41c2.287-0.885,2.988-1.718,3.054-4.24c0.061-2.36,0.014-4.723,0.08-7.082
			c0.028-1.023-0.319-1.611-1.375-1.62c-3.827-0.032-7.656-0.096-11.48-0.009c-0.487,0.011-1.357,0.84-1.368,1.305
			c-0.086,4.014-0.042,8.032,0.045,12.047c0.01,0.418,0.509,1.13,0.865,1.188C30.767,28.667,33.642,29.006,36.653,29.401z"/>
		<path fill="#FFFFFF" d="M130.347,153.917c-4.071,0-7.733,0.003-11.395-0.001c-1.721-0.002-3.44-0.041-5.159-0.01
			c-0.974,0.017-1.641-0.211-1.597-1.354c0.314-8.153-3.331-15.207-6.196-22.491c-1.022-2.599-1.851-5.289-2.549-7.995
			c-0.342-1.321-0.868-1.776-2.209-1.732c-3.891,0.128-7.787,0.075-11.674,0.258c-0.677,0.031-1.7,0.729-1.914,1.345
			c-2.404,6.932-4.682,13.908-6.989,20.874c-0.1,0.302-0.159,0.618-0.231,0.93c-0.807,3.47-0.029,4.649,3.275,5.952
			c1.654,0.652,3.105,1.832,4.62,2.818c0.209,0.136,0.249,0.531,0.438,0.976c-0.521,0.14-0.915,0.336-1.313,0.341
			c-4.958,0.06-9.918,0.022-14.873,0.168c-1.779,0.053-2.119-0.767-1.933-2.205c0.638-4.932,1.227-9.87,1.955-14.787
			c0.998-6.744,2.046-13.481,3.181-20.203c1.241-7.348,2.538-14.687,3.936-22.006c1.244-6.514,3.064-12.945,3.876-19.506
			c0.668-5.401,0.27-10.94,0.271-16.417c0.002-6.897-0.009-13.795-0.131-20.69c-0.082-4.61,1.525-8.197,5.63-10.526
			c0.343-0.195,0.785-0.667,0.764-0.981c-0.149-2.206-0.045-4.521-0.708-6.581c-1.376-4.275-1.758-8.306,1.495-11.848
			c3.943-4.293,10.506-3.583,13.236,1.544c2.084,3.914,2.476,8.223,0.929,12.43c-0.557,1.515-1.831,2.877-3.056,4.008
			c-1.558,1.438-1.891,3.124-0.405,4.727c4.525,4.884,6.004,10.767,5.346,17.188c-0.521,5.074-1.429,10.11-2.259,15.147
			c-0.077,0.466-0.812,1.136-1.28,1.17c-1.97,0.145-3.959,0.017-5.934,0.12c-1.455,0.076-1.85-0.523-1.835-1.902
			c0.065-5.873,0.071-11.747,0.021-17.62c-0.008-0.92-0.416-1.837-0.639-2.755c-0.242,0.942-0.692,1.884-0.693,2.826
			c-0.007,10.984,0.055,21.968,0.091,32.952c0.001,0.367-0.082,0.735-0.168,1.452c-2.327,0-4.607,0.002-6.888-0.001
			c-1.587-0.002-2.789,0.229-2.29,2.377c0.428,1.841,0.338,3.819,0.896,5.606c0.746,2.386,1.946,3.028,4.129,2.858
			c1.974-0.153,3.499-1.464,3.879-3.635c0.318-1.815,0.33-3.683,0.581-5.513c0.093-0.68,0.523-1.305,0.723-1.978
			c0.208-0.702,0.451-1.429,0.458-2.148c0.028-3.129,0.028-6.26-0.068-9.387c-0.043-1.383,0.358-2.007,1.83-1.928
			c1.653,0.089,3.332,0.147,4.972-0.036c1.828-0.204,2.451,0.63,2.785,2.254c1.312,6.371,2.804,12.706,4.058,19.088
			c2.056,10.455,4.049,20.923,5.929,31.411c1.217,6.779,2.129,13.611,3.297,20.4c0.354,2.062,0.959,4.111,1.713,6.066
			c0.911,2.361,2.606,3.91,5.172,4.688c1.549,0.47,2.898,1.638,4.28,2.576C130.006,152.419,130.024,152.992,130.347,153.917z
			 M121.476,150.061c-1.007-1.727-1.993-2.9-2.416-4.252c-0.946-3.027-1.733-6.119-2.365-9.229
			c-0.966-4.749-1.774-9.53-2.586-14.309c-0.229-1.354-0.839-2.016-2.245-1.994c-1.786,0.029-3.573-0.02-5.359-0.054
			c-1.21-0.023-1.622,0.597-1.378,1.702c0.302,1.367,0.556,2.757,1.005,4.078c2.551,7.51,6.874,14.434,7.441,22.611
			c0.036,0.509,0.804,1.346,1.276,1.379C116.971,150.146,119.109,150.061,121.476,150.061z M80.445,150.355
			c-2.852-3.276-1.829-6.284-0.876-9.271c1.278-4.005,2.605-7.995,3.901-11.994c0.893-2.754,1.769-5.514,2.754-8.591
			c-2.65,0-4.933,0.064-7.209-0.023c-1.471-0.057-2.011,0.603-2.232,1.967c-0.653,4.025-1.443,8.027-2.106,12.051
			c-0.766,4.651-1.496,9.31-2.123,13.981c-0.078,0.576,0.531,1.765,0.893,1.795C75.57,150.442,77.713,150.355,80.445,150.355z
			 M98.28,28.354c1.188-1.299,2.239-2.241,3.03-3.366c1.037-1.475,2.292-2.997,2.68-4.677c0.473-2.054,0.274-4.305,0.088-6.446
			c-0.063-0.721-0.876-1.8-1.528-1.958c-1.406-0.34-3-0.736-4.203,0.787c-1.962,2.485-3.984,4.925-6.026,7.346
			c-0.764,0.905-1.218,5.806-0.483,6.716c0.17,0.212,0.531,0.31,0.824,0.376C94.698,27.587,96.74,28.021,98.28,28.354z"/>
	</g>
</g>
<g id="ItmM1T.tif">
	<g>
		<path fill-rule="evenodd" clip-rule="evenodd" fill="#FFFFFF" d="M386.784,5c1.112,0.435,2.291,0.748,3.321,1.328
			c2.319,1.306,2.864,3.564,1.925,6.015c-0.545,1.421-0.815,3.016-0.868,4.544c-0.127,3.686-0.012,7.38-0.083,11.069
			c-0.029,1.555,0.5,2.112,2.111,2.05c3.183-0.123,6.373-0.04,9.561-0.035c4.369,0.008,6.081,1.743,6.108,6.168
			c0.049,7.713,0.089,15.426,0.153,23.14c0.063,7.711,0.309,15.425,0.156,23.131c-0.062,3.128-0.688,6.324-1.597,9.325
			c-0.494,1.635-2.171,2.892-3.206,4.393c-0.44,0.637-0.958,1.528-0.837,2.194c0.883,4.82,1.932,9.611,2.904,14.415
			c1.466,7.235,2.859,14.485,4.385,21.709c0.88,4.171,1.932,8.306,2.977,12.44c0.136,0.537,0.635,1.032,1.069,1.434
			c0.554,0.512,1.36,0.801,1.785,1.385c0.438,0.604,0.729,1.451,0.706,2.18c-0.007,0.257-1.125,0.666-1.747,0.688
			c-5.383,0.188-10.771,0.239-16.152,0.477c-1.752,0.077-2.196-0.977-2.562-2.229c-1.584-5.436-3.109-10.888-4.704-16.32
			c-2.258-7.689-4.556-15.366-6.843-23.047c-0.069-0.232-0.207-0.444-0.552-1.162c-0.6,2.21-1.066,3.991-1.567,5.764
			c-2.825,9.987-5.647,19.975-8.504,29.952c-0.414,1.445-0.559,2.684,0.991,3.57c0.416,0.238,0.788,0.701,0.979,1.146
			c0.264,0.617,0.6,1.417,0.397,1.942c-0.134,0.347-1.157,0.462-1.789,0.483c-3.228,0.111-6.458,0.179-9.688,0.222
			c-2.531,0.034-5.064,0.003-7.596,0.014c-1.227,0.005-1.741-0.517-1.517-1.782c0.868-4.885,1.646-9.784,2.561-14.659
			c2.863-15.261,5.689-30.528,8.706-45.758c1.127-5.694-0.511-4.794,5.626-4.855c8.477-0.084,16.953-0.06,25.428-0.194
			c1.628-0.025,2.25,0.479,2.475,2.055c0.291,2.042,0.844,4.047,1.359,6.407c2.152-1.378,2.834-3.281,3.648-5.083
			c0.077-0.171,0.09-0.371,0.141-0.554c1.039-3.77,0.909-3.95-2.896-4.045c-0.249-0.006-0.496-0.06-1.009-0.125
			c-0.263-14.086-0.308-28.179-0.606-42.264c-0.292-0.005-0.584-0.011-0.876-0.017c-0.06,0.95-0.178,1.901-0.173,2.851
			c0.08,12.106,0.176,24.212,0.269,36.318c0.003,0.318-0.017,0.639,0.008,0.956c0.133,1.7-0.404,2.406-2.345,2.404
			c-9.298-0.011-18.597,0.188-27.896,0.257c-2.479,0.019-2.473-0.114-2.535-2.629c-0.178-7.194-0.416-14.386-0.59-21.58
			c-0.05-2.032,0.054-4.067,0.047-6.102c-0.003-0.728-0.125-1.455-0.193-2.182c-0.207-0.046-0.415-0.092-0.622-0.139
			c-0.599,1.73-1.195,3.461-1.796,5.189c-0.626,1.797-1.112,3.66-1.912,5.376c-2.536,5.441-8.249,4.877-11.009,0.314
			c-3.52-5.819-6.729-11.865-9.562-18.047c-1.758-3.834-2.569-8.103-3.806-12.177c0-0.382,0-0.765,0-1.148
			c0.158-0.4,0.326-0.796,0.474-1.2c1.248-3.426,2.902-6.561,6.408-8.18c0.59-0.271,1.576-0.265,2.083,0.067
			c0.354,0.232,0.392,1.283,0.241,1.886c-0.307,1.228-0.727,2.455-1.3,3.581c-0.756,1.485-0.866,2.788-0.011,4.321
			c0.529,0.95,0.504,2.199,0.787,3.299c0.359,1.399,0.735,2.798,1.203,4.164c0.116,0.342,0.718,0.852,0.912,0.781
			c1.754-0.642,2.008,0.764,2.584,1.769c1.306,2.278,2.627,4.548,4.084,7.068c0.299-0.569,0.462-0.772,0.516-1
			c0.778-3.283,1.636-6.551,2.291-9.859c1.602-8.079,2.057-8.508,10.401-8.629c2.646-0.039,5.295-0.006,7.942-0.006
			c0.112-0.265,0.225-0.531,0.337-0.796c-0.435-0.557-0.763-1.277-1.323-1.64c-2.049-1.329-3.081-3.157-3.123-5.576
			c-0.033-1.975-0.12-3.951-0.08-5.924c0.036-1.793-0.526-2.782-2.538-2.592c-0.513,0.048-1.427-0.363-1.536-0.741
			c-0.16-0.556,0.065-1.407,0.44-1.887c0.484-0.618,1.232-1.08,1.946-1.46c3.819-2.037,7.769-3.749,12.039-4.618
			C384.743,5,385.764,5,386.784,5z M382.11,13.737c0,0.021,0,0.043,0,0.064c-1.654,0-3.312,0.052-4.963-0.018
			c-1.185-0.05-1.587,0.456-1.557,1.576c0.051,1.845-0.116,3.708,0.081,5.533c0.199,1.838,0.104,4.053,2.374,4.798
			c1.476,0.483,2.099,1.317,2.018,2.763c-0.064,1.156,0.454,1.622,1.574,1.592c1.845-0.048,3.69-0.086,5.535-0.073
			c1.15,0.008,1.611-0.546,1.593-1.637c-0.076-4.382-0.16-8.764-0.209-13.146c-0.012-1.038-0.408-1.5-1.484-1.466
			C385.419,13.775,383.765,13.737,382.11,13.737z M344.575,43.256c3.052-1.177,3.02-1.164,1.829-4.03
			c-0.307-0.74-0.342-1.595-0.493-2.399c-0.211-1.118-0.171-2.363-0.673-3.329c-1.006-1.935-0.651-3.633,0.206-5.452
			c0.505-1.072,0.757-2.262,1.223-3.712C340.062,26.751,339.291,35.654,344.575,43.256z"/>
	</g>
</g>
</svg>
